<svg fill="none" height="24" viewBox="0 0 24 24" width="24" xmlns="http://www.w3.org/2000/svg"><g fill="#141b34"><path d="m7.25457 20.0357-.67082-.3354zm-3.29362-3.2936-.33541-.6708zm-1.95402 1.4865.74031.1201zm3.76116 3.7612-.12013-.7404zm-2.86221-1.9468c-.29177.294-.28996.7689.00405 1.0607.29401.2917.76888.2899 1.06065-.0041zm2.74352-.6351c.29177-.294.28996-.7688-.00405-1.0606-.294-.2918-.76887-.29-1.06065.004zm2.67622-3.1913-1.74187 3.4837 1.34164.6708 1.74187-3.4837zm-4.02926 1.1963 3.48373-1.7418-.67082-1.3417-3.48373 1.7419zm-.67082-1.3416c-.59967.2998-1.12539.5605-1.50307.8241-.39214.2736-.76346.6436-.85586 1.2131l1.48063.2402c.00079-.0048.00095-.0135.02151-.0401.02726-.0353.08642-.0954.21211-.1831.26617-.1857.67246-.3911 1.3155-.7126zm2.95821 3.629c-.32152.6431-.52682 1.0494-.71256 1.3155-.08771.1257-.14784.1849-.18309.2121-.02659.0206-.03527.0207-.04014.0215l.24027 1.4807c.56941-.0924.93943-.4637 1.21307-.8559.26355-.3777.52426-.9034.82409-1.5031zm-2.61317 1.3993 1.67882-1.6917-1.0647-1.0566-1.67882 1.6917zm-2.70397-2.9911c-.05015.309.02148.6071.10557.8385.08853.2436.21943.4899.36792.7252.2976.4715.71041.9684 1.15196 1.4135.4414.445.93669.8637 1.4114 1.166.237.1508.48637.2839.73467.3736.23807.0859.53855.1553.8501.1048l-.24027-1.4807c.04437-.0072.02176.0091-.1004-.035-.11192-.0404-.2599-.1143-.43856-.2281-.35662-.227-.76593-.5677-1.15198-.9569-.38589-.3891-.72335-.8012-.94844-1.1578-.11285-.1788-.18639-.3263-.2266-.437-.04465-.1228-.02606-.1394-.03474-.0859z"/><path d="m19.1226 6.23735c-.3766.37662-.9872.37662-1.3638 0l-1.0607 1.06063c.9624.96244 2.5228.96244 3.4852 0zm-1.3638 0c-.3766-.37664-.3766-.9873 0-1.36394l-1.0607-1.06063c-.9623.96242-.9623 2.52279 0 3.4852zm0-1.36394c.3766-.37661.9872-.37661 1.3638 0l1.0607-1.06063c-.9624-.96244-2.5228-.96244-3.4852 0zm1.3638 0c.3766.37664.3766.9873 0 1.36394l1.0607 1.06063c.9623-.96241.9623-2.52278 0-3.4852zm-8.8897 10.25399c-.37656.3767-.98713.3767-1.36372 0l-1.06069 1.0607c.96239.9624 2.52271.9624 3.48511 0zm-1.36372 0c-.37662-.3766-.37662-.9873 0-1.3639l-1.06069-1.0606c-.96237.9624-.96237 2.5228 0 3.4852zm0-1.3639c.37659-.3766.98716-.3766 1.36372 0l1.0607-1.0606c-.9624-.9625-2.52272-.9625-3.48511 0zm1.36372 0c.3767.3766.3767.9873 0 1.3639l1.0607 1.0607c.9624-.9624.9624-2.5228 0-3.4852zm7.5259 1.3639c-.3766-.3766-.3766-.9873 0-1.3639l-1.0607-1.0606c-.9623.9624-.9623 2.5228 0 3.4852zm0-1.3639c.3766-.3766.9872-.3766 1.3638 0l1.0607-1.0606c-.9624-.9625-2.5228-.9625-3.4852 0zm1.3638 0c.3766.3766.3766.9873 0 1.3639l1.0607 1.0607c.9623-.9624.9623-2.5228 0-3.4852zm0 1.3639c-.3766.3767-.9872.3767-1.3638 0l-1.0607 1.0607c.9624.9624 2.5228.9624 3.4852 0zm-10.25342-8.89005c-.37662-.37664-.37662-.9873 0-1.36394l-1.06069-1.06063c-.96237.96242-.96237 2.52279 0 3.4852zm0-1.36394c.37659-.37661.98716-.37661 1.36372 0l1.0607-1.06063c-.9624-.96244-2.52272-.96244-3.48511 0zm1.36372 0c.3767.37664.3767.9873 0 1.36394l1.0607 1.06063c.9624-.96241.9624-2.52278 0-3.4852zm0 1.36394c-.37656.37662-.98713.37662-1.36372 0l-1.06069 1.06063c.96239.96244 2.52271.96244 3.48511 0zm10.0488 4.72695c-.5325 0-.9643-.4318-.9643-.96448h-1.5c0 1.36108 1.1033 2.46448 2.4643 2.46448zm-.9643-.96448c0-.53267.4318-.96443.9643-.96443v-1.5c-1.361 0-2.4643 1.1034-2.4643 2.46443zm.9643-.96443c.5326 0 .9644.43176.9644.96443h1.5c0-1.36103-1.1033-2.46443-2.4644-2.46443zm.9644.96443c0 .53268-.4318.96448-.9644.96448v1.5c1.3611 0 2.4644-1.1034 2.4644-2.46448zm-13.53566.96518c-.53256 0-.96435-.4317-.96435-.9644h-1.5c0 1.361 1.10329 2.4644 2.46435 2.4644zm-.96435-.9644c0-.53266.43179-.96442.96435-.96442v-1.5c-1.36106 0-2.46435 1.1034-2.46435 2.46442zm.96435-.96442c.53256 0 .96434.43176.96434.96442h1.50002c0-1.36102-1.10331-2.46442-2.46436-2.46442zm.96434.96442c0 .5327-.43178.9644-.96434.9644v1.5c1.36105 0 2.46436-1.1034 2.46436-2.4644zm4.35662 6.2852c0-.5327.4317-.9644.9643-.9644v-1.5c-1.3611 0-2.4643 1.1034-2.4643 2.4644zm.9643-.9644c.5326 0 .9643.4317.9643.9644h1.5c0-1.361-1.1032-2.4644-2.4643-2.4644zm.9643.9644c0 .5327-.4317.9644-.9643.9644v1.5c1.3611 0 2.4643-1.1034 2.4643-2.4644zm-.9643.9644c-.5326 0-.9643-.4317-.9643-.9644h-1.5c0 1.361 1.1032 2.4644 2.4643 2.4644zm-.9643-13.53553c0-.53267.4317-.96443.9643-.96443v-1.5c-1.3611 0-2.4643 1.1034-2.4643 2.46443zm.9643-.96443c.5326 0 .9643.43176.9643.96443h1.5c0-1.36103-1.1032-2.46443-2.4643-2.46443zm.9643.96443c0 .53268-.4317.96443-.9643.96443v1.5c1.3611 0 2.4643-1.10339 2.4643-2.46443zm-.9643.96443c-.5326 0-.9643-.43175-.9643-.96443h-1.5c0 1.36104 1.1032 2.46443 2.4643 2.46443z"/></g></svg>