<svg fill="none" height="24" viewBox="0 0 24 24" width="24" xmlns="http://www.w3.org/2000/svg"><g fill="#1c274c"><path d="m15.7212 7.34884c0 1.0275-.8329 1.86046-1.8604 1.86046s-1.8605-.83296-1.8605-1.86046c0-1.02751.833-1.86047 1.8605-1.86047s1.8604.83296 1.8604 1.86047z"/><path clip-rule="evenodd" d="m16.0856 2.10839c-.8064-.10842-1.8318-.10841-3.104-.10839h-1.9626c-1.27215-.00002-2.29756-.00003-3.10404.10839-.83731.11258-1.5423.35341-2.10222.91333-.55993.55992-.80076 1.26492-.91333 2.10223-.10843.80648-.10841 1.8319-.10839 3.10407v7.54398c-.00002 1.2722-.00004 2.2976.10839 3.104.11257.8374.3534 1.5424.91333 2.1023.55992.5599 1.26491.8007 2.10222.9133.80648.1084 1.8319.1084 3.10404.1084h1.9626c1.2722 0 2.2976 0 3.104-.1084.8374-.1126 1.5424-.3534 2.1023-.9133s.8007-1.2649.9133-2.1023c.1084-.8064.1084-1.8319.1084-3.104v-7.54397c0-1.27218 0-2.29759-.1084-3.10408-.1126-.83731-.3534-1.54231-.9133-2.10223s-1.2649-.80075-2.1023-.91333zm.7232 14.52181.9861 1.0406c.0188-.5368.0193-1.1754.0193-1.9499v-7.44183c0-1.33527-.0014-2.26654-.0959-2.96919-.0918-.68258-.2596-1.04404-.5171-1.3015-.2574-.25745-.6189-.42531-1.3015-.51708-.7026-.09447-1.6339-.09595-2.9692-.09595h-1.8604c-1.33529 0-2.26656.00148-2.96921.09595-.68258.09177-1.04404.25963-1.3015.51708-.25745.25746-.42531.61892-.51708 1.3015-.09447.70265-.09595 1.63392-.09595 2.96919v4.62493l.0033-.0033c.91683-.9407 2.33522-.8762 3.18335.1183l2.94029 3.4478c.2355.2761.5454.2887.7831.0928l.2044-.1684c1.0759-.8867 2.5512-.7708 3.508.239z" fill-rule="evenodd"/><g opacity=".5"><path d="m5.01606 4.5h-.01606c-.4645 0-.69675 0-.89109.03078-1.06973.16943-1.9087 1.0084-2.07813 2.07813-.03078.19434-.03078.42659-.03078.89109v9c0 .4645 0 .6968.03078.8911.16943 1.0697 1.0084 1.9087 2.07813 2.0781.19434.0308.42659.0308.89109.0308h.01606c-.04971-.199-.08748-.407-.11665-.624-.10843-.8064-.10841-1.8318-.10839-3.104v-7.54398c-.00002-1.27217-.00004-2.29759.10839-3.10407.02917-.21694.06694-.425.11665-.62395z"/><path d="m18.9845 19.5c.0498-.199.0875-.407.1167-.624.1084-.8064.1084-1.8318.1084-3.104v-7.54397c0-1.27215 0-2.29761-.1084-3.10408-.0292-.21694-.0669-.425-.1167-.62395h.0155c.4645 0 .6968 0 .8911.03078 1.0697.16943 1.9087 1.0084 2.0781 2.07813.0308.19434.0308.42659.0308.89109v9c0 .4645 0 .6968-.0308.8911-.1694 1.0697-1.0084 1.9087-2.0781 2.0781-.1943.0308-.4266.0308-.8911.0308z"/></g></g></svg>